<svg id="svg" version="1.1" xmlns="http://www.w3.org/2000/svg" xmlns:xlink="http://www.w3.org/1999/xlink" width="400" height="400" viewBox="0, 0, 400,400"><g id="svgg"><path id="path0" d="M196.719 5.313 C 196.613 5.484,196.272 5.625,195.961 5.625 C 195.651 5.625,194.579 6.398,193.580 7.344 C 192.580 8.289,191.711 9.063,191.649 9.063 C 191.537 9.063,191.006 9.482,190.168 10.234 C 189.928 10.449,189.581 10.625,189.397 10.625 C 189.213 10.625,189.063 10.766,189.063 10.938 C 189.063 11.109,188.852 11.250,188.594 11.250 C 188.336 11.250,188.125 11.461,188.125 11.719 C 188.125 11.989,187.843 12.188,187.458 12.188 C 187.091 12.188,186.465 12.539,186.066 12.969 C 185.668 13.398,185.253 13.750,185.144 13.750 C 184.866 13.750,182.054 15.731,181.927 16.016 C 181.870 16.145,181.624 16.250,181.380 16.250 C 181.137 16.250,180.938 16.391,180.938 16.563 C 180.938 16.734,180.676 16.875,180.356 16.875 C 180.037 16.875,179.511 17.227,179.188 17.656 C 178.866 18.086,178.349 18.438,178.041 18.438 C 177.733 18.438,177.399 18.648,177.301 18.906 C 177.202 19.164,176.953 19.375,176.748 19.375 C 176.058 19.375,174.692 20.153,174.690 20.547 C 174.689 20.762,174.336 20.938,173.906 20.938 C 173.477 20.938,173.125 21.078,173.125 21.250 C 173.125 21.422,172.929 21.563,172.690 21.563 C 172.450 21.563,172.173 21.773,172.074 22.031 C 171.976 22.289,171.609 22.500,171.260 22.500 C 170.911 22.500,170.625 22.625,170.625 22.779 C 170.625 22.932,170.273 23.145,169.844 23.253 C 169.414 23.361,169.063 23.587,169.063 23.756 C 169.063 23.925,168.802 24.063,168.483 24.063 C 168.164 24.063,167.524 24.414,167.061 24.844 C 166.597 25.273,165.944 25.625,165.609 25.625 C 165.274 25.625,165.000 25.750,165.000 25.904 C 165.000 26.057,164.648 26.270,164.219 26.378 C 163.789 26.486,163.438 26.712,163.438 26.881 C 163.438 27.050,163.152 27.188,162.803 27.188 C 162.454 27.187,162.087 27.398,161.988 27.656 C 161.889 27.914,161.564 28.125,161.265 28.125 C 160.542 28.125,158.750 29.032,158.750 29.398 C 158.750 29.557,158.477 29.688,158.143 29.688 C 157.810 29.688,157.450 29.828,157.344 30.000 C 157.238 30.172,156.825 30.313,156.426 30.313 C 156.028 30.313,155.526 30.523,155.313 30.781 C 155.099 31.039,154.730 31.250,154.493 31.250 C 154.256 31.250,154.063 31.375,154.063 31.529 C 154.063 31.682,153.711 31.895,153.281 32.003 C 152.852 32.111,152.500 32.337,152.500 32.506 C 152.500 32.675,152.161 32.813,151.748 32.813 C 151.068 32.812,147.883 34.235,147.500 34.710 C 147.414 34.816,146.793 34.990,146.119 35.097 C 145.445 35.203,144.813 35.401,144.713 35.536 C 144.322 36.064,141.037 37.500,140.220 37.500 C 139.740 37.500,139.275 37.708,139.176 37.969 C 139.073 38.236,138.607 38.438,138.092 38.438 C 137.594 38.438,137.188 38.578,137.188 38.750 C 137.188 38.922,136.853 39.063,136.445 39.063 C 136.036 39.063,135.526 39.273,135.313 39.531 C 135.099 39.789,134.457 40.000,133.886 40.000 C 133.316 40.000,132.762 40.141,132.656 40.313 C 132.550 40.484,132.135 40.625,131.734 40.625 C 131.333 40.625,130.923 40.836,130.824 41.094 C 130.702 41.414,130.201 41.562,129.247 41.563 C 128.478 41.563,127.762 41.703,127.656 41.875 C 127.550 42.047,127.130 42.188,126.723 42.188 C 126.315 42.188,125.771 42.398,125.513 42.656 C 125.256 42.914,124.762 43.125,124.416 43.125 C 124.070 43.125,123.711 43.247,123.619 43.397 C 123.526 43.547,122.715 43.740,121.817 43.826 C 120.918 43.913,120.130 44.142,120.065 44.335 C 120.001 44.529,119.405 44.688,118.742 44.688 C 118.079 44.688,117.460 44.812,117.366 44.965 C 117.271 45.117,116.701 45.334,116.097 45.447 C 115.494 45.561,115.000 45.788,115.000 45.952 C 115.000 46.116,114.191 46.254,113.203 46.260 C 112.121 46.266,111.165 46.452,110.800 46.729 C 110.466 46.981,109.736 47.188,109.177 47.188 C 108.619 47.188,108.075 47.328,107.969 47.500 C 107.863 47.672,107.302 47.813,106.723 47.813 C 106.143 47.813,105.459 48.023,105.201 48.281 C 104.867 48.615,104.055 48.750,102.385 48.750 C 101.093 48.750,99.950 48.891,99.844 49.063 C 99.738 49.234,98.973 49.375,98.145 49.375 C 97.188 49.375,96.497 49.546,96.250 49.844 C 95.985 50.163,95.276 50.313,94.024 50.313 C 93.008 50.313,92.188 50.452,92.188 50.625 C 92.188 50.815,90.789 50.938,88.616 50.938 C 85.858 50.938,84.938 51.044,84.576 51.406 C 84.229 51.754,83.378 51.875,81.291 51.875 C 79.742 51.875,78.387 52.016,78.281 52.188 C 78.172 52.364,76.631 52.500,74.729 52.500 C 72.259 52.500,71.209 52.621,70.763 52.959 C 69.846 53.653,48.075 53.662,47.500 52.969 C 46.925 52.276,36.200 52.276,35.625 52.969 C 35.411 53.227,35.057 53.438,34.838 53.438 C 34.313 53.438,32.500 55.038,32.500 55.500 C 32.500 55.699,32.289 56.036,32.031 56.250 C 31.321 56.840,31.323 184.689,32.033 186.051 C 32.339 186.638,32.500 187.850,32.500 189.567 C 32.500 191.008,32.623 192.188,32.773 192.188 C 32.923 192.187,33.108 193.807,33.184 195.786 C 33.268 197.965,33.468 199.530,33.692 199.755 C 33.909 199.972,34.063 201.060,34.063 202.388 C 34.063 203.632,34.203 204.738,34.375 204.844 C 34.547 204.950,34.687 205.722,34.687 206.559 C 34.687 207.495,34.868 208.261,35.156 208.549 C 35.460 208.853,35.625 209.627,35.625 210.754 C 35.625 212.481,36.003 214.614,36.627 216.406 C 36.807 216.922,37.023 217.836,37.107 218.438 C 37.192 219.039,37.370 219.672,37.502 219.844 C 37.635 220.016,37.843 221.035,37.965 222.110 C 38.087 223.184,38.313 224.142,38.468 224.238 C 38.623 224.334,38.750 224.970,38.750 225.653 C 38.750 226.468,38.911 226.956,39.219 227.074 C 39.506 227.185,39.687 227.658,39.688 228.296 C 39.688 228.869,39.828 229.425,40.000 229.531 C 40.172 229.637,40.312 230.322,40.313 231.052 C 40.313 231.783,40.519 232.654,40.771 232.987 C 41.024 233.321,41.235 233.972,41.240 234.435 C 41.246 234.897,41.391 235.363,41.563 235.469 C 41.734 235.575,41.875 236.058,41.875 236.543 C 41.875 237.027,42.086 237.599,42.344 237.813 C 42.602 238.026,42.812 238.615,42.812 239.120 C 42.812 240.273,43.728 243.125,44.098 243.125 C 44.251 243.125,44.375 243.408,44.375 243.754 C 44.375 244.100,44.508 244.628,44.670 244.926 C 44.833 245.225,45.050 245.996,45.153 246.641 C 45.256 247.285,45.475 247.813,45.639 247.813 C 45.803 247.813,45.938 248.096,45.937 248.442 C 45.937 249.072,46.011 249.266,46.978 251.197 C 47.265 251.770,47.504 252.543,47.510 252.916 C 47.515 253.289,47.726 253.867,47.979 254.200 C 48.231 254.534,48.437 255.061,48.437 255.372 C 48.437 255.683,48.578 255.938,48.750 255.938 C 48.922 255.938,49.063 256.223,49.063 256.572 C 49.063 256.921,49.273 257.288,49.531 257.387 C 49.814 257.496,50.000 257.968,50.000 258.579 C 50.000 259.596,50.724 261.394,51.270 261.731 C 51.431 261.830,51.563 262.185,51.563 262.518 C 51.563 262.852,51.703 263.125,51.875 263.125 C 52.047 263.125,52.188 263.551,52.188 264.072 C 52.188 264.626,52.382 265.094,52.656 265.199 C 52.914 265.298,53.125 265.634,53.125 265.946 C 53.125 266.597,54.104 268.433,54.453 268.436 C 54.582 268.437,54.688 268.838,54.688 269.327 C 54.688 270.145,55.465 272.132,55.929 272.500 C 56.215 272.726,57.187 274.877,57.187 275.282 C 57.187 275.470,57.313 275.625,57.466 275.625 C 57.619 275.625,57.833 275.977,57.941 276.406 C 58.049 276.836,58.275 277.188,58.443 277.188 C 58.612 277.188,58.750 277.460,58.750 277.794 C 58.750 278.128,58.891 278.488,59.063 278.594 C 59.234 278.700,59.375 278.999,59.375 279.258 C 59.375 279.517,59.727 280.190,60.156 280.753 C 60.586 281.317,60.937 282.001,60.937 282.273 C 60.938 282.545,61.119 282.954,61.340 283.181 C 61.561 283.408,61.990 284.121,62.292 284.766 C 62.594 285.410,62.976 285.938,63.140 285.938 C 63.303 285.938,63.438 286.289,63.438 286.719 C 63.438 287.148,63.578 287.500,63.750 287.500 C 63.922 287.500,64.063 287.696,64.063 287.935 C 64.063 288.175,64.273 288.452,64.531 288.551 C 64.789 288.649,65.000 289.016,65.000 289.365 C 65.000 289.714,65.141 290.000,65.313 290.000 C 65.484 290.000,65.625 290.201,65.625 290.446 C 65.625 290.692,65.817 291.085,66.053 291.320 C 66.288 291.556,66.578 292.058,66.699 292.436 C 66.819 292.815,67.048 293.125,67.209 293.125 C 67.369 293.125,67.500 293.336,67.500 293.594 C 67.500 293.852,67.641 294.063,67.813 294.063 C 67.984 294.063,68.125 294.348,68.125 294.697 C 68.125 295.046,68.336 295.413,68.594 295.512 C 68.852 295.611,69.063 295.867,69.063 296.082 C 69.063 296.296,69.414 296.851,69.844 297.314 C 70.273 297.778,70.625 298.263,70.625 298.391 C 70.625 298.967,71.444 300.308,71.797 300.310 C 72.012 300.311,72.188 300.523,72.188 300.781 C 72.188 301.039,72.328 301.250,72.500 301.250 C 72.672 301.250,72.813 301.536,72.813 301.885 C 72.813 302.234,73.023 302.601,73.281 302.699 C 73.539 302.798,73.750 303.051,73.750 303.260 C 73.750 303.470,74.102 303.971,74.531 304.375 C 74.961 304.779,75.312 305.221,75.313 305.358 C 75.313 305.746,77.277 308.438,77.560 308.438 C 77.699 308.438,77.813 308.667,77.813 308.949 C 77.813 309.230,78.164 309.785,78.594 310.184 C 79.023 310.582,79.375 311.055,79.375 311.235 C 79.375 311.415,79.506 311.563,79.666 311.562 C 79.827 311.562,80.043 311.829,80.146 312.155 C 80.249 312.481,80.821 313.265,81.417 313.896 C 82.013 314.528,82.500 315.226,82.500 315.447 C 82.500 315.669,82.852 316.114,83.281 316.437 C 83.711 316.759,84.063 317.141,84.063 317.286 C 84.063 317.430,84.449 317.955,84.922 318.452 C 86.131 319.723,86.562 320.256,86.562 320.480 C 86.562 320.586,86.949 321.075,87.422 321.567 C 89.207 323.424,89.687 324.003,89.687 324.297 C 89.687 324.464,90.039 324.864,90.469 325.187 C 90.898 325.509,91.250 325.891,91.250 326.036 C 91.250 326.180,92.305 327.363,93.594 328.665 C 94.883 329.966,95.938 331.116,95.938 331.220 C 95.937 331.324,97.555 333.092,99.531 335.149 C 101.508 337.206,103.125 338.999,103.125 339.132 C 103.125 339.266,103.250 339.375,103.404 339.375 C 103.557 339.375,105.345 340.992,107.377 342.969 C 109.410 344.945,111.229 346.562,111.421 346.563 C 111.613 346.563,111.957 346.912,112.186 347.340 C 112.414 347.768,113.001 348.294,113.488 348.510 C 113.976 348.726,114.375 349.019,114.375 349.161 C 114.375 349.532,115.207 350.313,115.603 350.313 C 115.787 350.313,115.938 350.523,115.938 350.781 C 115.938 351.039,116.115 351.250,116.332 351.250 C 116.549 351.250,116.991 351.602,117.313 352.031 C 117.636 352.461,118.072 352.813,118.281 352.813 C 118.491 352.813,118.926 353.164,119.249 353.594 C 119.572 354.023,119.950 354.375,120.089 354.375 C 120.228 354.375,120.668 354.727,121.066 355.156 C 121.465 355.586,121.935 355.937,122.112 355.938 C 122.289 355.938,122.514 356.148,122.613 356.406 C 122.712 356.664,123.008 356.875,123.271 356.875 C 123.535 356.875,123.750 357.016,123.750 357.188 C 123.750 357.359,123.961 357.500,124.219 357.500 C 124.477 357.500,124.688 357.711,124.688 357.969 C 124.688 358.231,124.966 358.438,125.320 358.438 C 125.708 358.437,126.068 358.740,126.250 359.219 C 126.413 359.648,126.759 360.000,127.018 360.000 C 127.277 360.000,127.987 360.484,128.596 361.075 C 129.205 361.666,129.981 362.238,130.320 362.346 C 130.660 362.454,130.937 362.673,130.938 362.834 C 130.938 362.994,131.071 363.125,131.234 363.125 C 131.397 363.125,131.910 363.477,132.373 363.906 C 132.837 364.336,133.407 364.687,133.639 364.688 C 133.872 364.688,134.063 364.809,134.063 364.958 C 134.063 365.253,136.181 366.755,137.609 367.473 C 138.098 367.719,138.570 368.107,138.658 368.335 C 138.745 368.563,139.013 368.750,139.252 368.750 C 139.492 368.750,139.688 368.875,139.688 369.029 C 139.688 369.182,140.039 369.395,140.469 369.503 C 140.898 369.611,141.250 369.837,141.250 370.006 C 141.250 370.175,141.397 370.313,141.576 370.313 C 141.756 370.313,142.281 370.664,142.745 371.094 C 143.208 371.523,143.771 371.875,143.995 371.875 C 144.219 371.875,144.781 372.227,145.245 372.656 C 145.708 373.086,146.265 373.437,146.481 373.438 C 146.698 373.438,146.875 373.575,146.875 373.744 C 146.875 373.913,147.227 374.139,147.656 374.247 C 148.086 374.355,148.438 374.568,148.438 374.721 C 148.438 374.875,148.648 375.000,148.906 375.000 C 149.164 375.000,149.375 375.138,149.375 375.307 C 149.375 375.475,149.727 375.701,150.156 375.809 C 150.586 375.917,150.938 376.131,150.938 376.284 C 150.938 376.437,151.289 376.563,151.719 376.563 C 152.205 376.563,152.500 376.740,152.500 377.031 C 152.500 377.295,152.779 377.500,153.138 377.500 C 153.489 377.500,154.087 377.795,154.466 378.155 C 154.846 378.515,155.438 378.933,155.781 379.084 C 156.125 379.234,157.109 379.781,157.969 380.300 C 158.828 380.818,159.742 381.324,160.000 381.425 C 160.258 381.526,160.750 381.763,161.094 381.953 C 161.910 382.404,163.054 382.966,164.219 383.487 C 164.734 383.717,165.342 384.082,165.569 384.297 C 165.796 384.512,166.183 384.687,166.429 384.688 C 166.674 384.688,166.875 384.828,166.875 385.000 C 166.875 385.172,167.367 385.313,167.969 385.313 C 168.733 385.313,169.063 385.454,169.063 385.781 C 169.063 386.039,169.273 386.250,169.531 386.250 C 169.789 386.250,170.000 386.391,170.000 386.563 C 170.000 386.734,170.337 386.875,170.748 386.875 C 171.159 386.875,171.577 387.086,171.676 387.344 C 171.781 387.618,172.249 387.813,172.803 387.813 C 173.324 387.813,173.750 387.938,173.750 388.091 C 173.750 388.244,174.102 388.458,174.531 388.566 C 174.961 388.674,175.313 388.900,175.313 389.068 C 175.313 389.237,175.604 389.375,175.960 389.375 C 176.316 389.375,176.818 389.586,177.076 389.844 C 177.334 390.102,177.956 390.313,178.460 390.313 C 178.963 390.313,179.375 390.437,179.375 390.589 C 179.375 390.740,179.621 390.955,179.922 391.066 C 180.223 391.177,180.961 391.538,181.563 391.869 C 182.164 392.199,183.118 392.477,183.682 392.485 C 184.294 392.494,184.780 392.689,184.887 392.969 C 184.986 393.227,185.325 393.437,185.640 393.438 C 185.955 393.438,186.300 393.578,186.406 393.750 C 186.512 393.922,186.928 394.063,187.329 394.063 C 187.730 394.062,188.139 394.273,188.238 394.531 C 188.350 394.823,188.827 395.000,189.503 395.000 C 190.100 395.000,190.675 395.141,190.781 395.312 C 190.887 395.484,191.322 395.625,191.747 395.625 C 192.172 395.625,192.601 395.836,192.699 396.094 C 192.800 396.357,193.265 396.563,193.757 396.563 C 194.240 396.562,194.694 396.738,194.766 396.953 C 194.862 397.241,196.056 397.344,199.307 397.344 C 202.420 397.344,203.834 397.229,204.109 396.953 C 204.324 396.738,204.828 396.563,205.229 396.563 C 205.629 396.563,206.038 396.352,206.137 396.094 C 206.236 395.836,206.653 395.625,207.065 395.625 C 207.476 395.625,207.813 395.484,207.813 395.313 C 207.813 395.141,208.360 395.000,209.029 395.000 C 209.822 395.000,210.308 394.837,210.426 394.531 C 210.524 394.273,210.844 394.063,211.135 394.063 C 211.845 394.063,214.063 393.070,214.063 392.752 C 214.063 392.614,214.437 392.500,214.895 392.500 C 215.839 392.500,218.125 391.573,218.125 391.190 C 218.125 391.051,218.477 390.938,218.906 390.938 C 219.336 390.938,219.688 390.797,219.688 390.625 C 219.688 390.453,220.012 390.313,220.409 390.313 C 220.806 390.313,221.404 390.106,221.737 389.854 C 222.071 389.601,222.541 389.390,222.783 389.385 C 223.025 389.379,223.683 389.023,224.247 388.594 C 224.810 388.164,225.632 387.813,226.073 387.813 C 226.578 387.813,226.875 387.639,226.875 387.344 C 226.875 387.052,227.170 386.875,227.656 386.875 C 228.086 386.875,228.438 386.734,228.438 386.563 C 228.438 386.391,228.633 386.250,228.873 386.250 C 229.112 386.250,229.389 386.039,229.488 385.781 C 229.592 385.510,230.059 385.313,230.597 385.313 C 231.108 385.312,231.613 385.172,231.719 385.000 C 231.825 384.828,232.189 384.687,232.528 384.688 C 232.867 384.688,233.226 384.477,233.324 384.219 C 233.423 383.961,233.771 383.750,234.096 383.750 C 234.421 383.750,234.688 383.609,234.688 383.438 C 234.688 383.266,235.043 383.125,235.479 383.125 C 235.914 383.125,236.351 382.914,236.449 382.656 C 236.548 382.398,236.814 382.187,237.039 382.188 C 237.572 382.188,239.370 381.164,239.373 380.859 C 239.374 380.730,239.575 380.625,239.818 380.625 C 240.376 380.625,242.183 379.611,242.186 379.297 C 242.187 379.168,242.393 379.063,242.644 379.063 C 243.340 379.063,245.937 377.401,245.938 376.955 C 245.938 376.739,246.197 376.563,246.514 376.563 C 247.264 376.562,249.063 375.664,249.063 375.290 C 249.063 375.130,249.273 375.000,249.531 375.000 C 249.789 375.000,250.000 374.859,250.000 374.688 C 250.000 374.516,250.264 374.375,250.587 374.375 C 250.909 374.375,251.349 374.164,251.563 373.906 C 251.776 373.648,252.125 373.438,252.336 373.438 C 252.548 373.438,253.101 373.086,253.564 372.656 C 254.028 372.227,254.591 371.875,254.816 371.875 C 255.041 371.875,255.747 371.383,256.385 370.781 C 257.023 370.180,257.638 369.687,257.752 369.687 C 258.044 369.687,262.321 366.770,262.448 366.484 C 262.505 366.355,262.751 366.250,262.995 366.250 C 263.238 366.250,263.438 366.109,263.438 365.938 C 263.438 365.766,263.648 365.625,263.906 365.625 C 264.164 365.625,264.375 365.414,264.375 365.156 C 264.375 364.890,264.655 364.688,265.022 364.688 C 265.714 364.688,266.563 364.011,266.563 363.460 C 266.563 363.276,266.773 363.125,267.031 363.125 C 267.289 363.125,267.500 362.984,267.500 362.813 C 267.500 362.641,267.680 362.500,267.901 362.500 C 268.333 362.500,269.800 361.434,270.590 360.547 C 270.857 360.246,271.326 360.000,271.632 360.000 C 271.938 360.000,272.188 359.789,272.188 359.531 C 272.188 359.273,272.338 359.063,272.522 359.063 C 272.955 359.063,273.750 358.267,273.750 357.835 C 273.750 357.651,274.050 357.500,274.416 357.500 C 274.783 357.500,275.547 357.008,276.114 356.406 C 276.681 355.805,277.296 355.313,277.479 355.313 C 277.662 355.313,277.813 355.102,277.813 354.844 C 277.813 354.586,278.023 354.375,278.281 354.375 C 278.539 354.375,278.750 354.244,278.750 354.084 C 278.750 353.923,279.023 353.706,279.356 353.600 C 279.690 353.494,280.662 352.711,281.518 351.860 C 282.374 351.009,283.167 350.313,283.282 350.313 C 283.512 350.312,284.324 349.582,287.771 346.273 C 289.038 345.057,290.130 344.063,290.199 344.063 C 290.433 344.062,294.375 339.871,294.375 339.622 C 294.375 339.486,294.563 339.375,294.792 339.375 C 295.259 339.375,296.875 337.680,296.875 337.190 C 296.875 337.017,297.026 336.875,297.210 336.875 C 297.642 336.875,298.438 336.080,298.438 335.647 C 298.438 335.463,298.588 335.313,298.772 335.313 C 299.205 335.312,300.000 334.517,300.000 334.085 C 300.000 333.901,300.211 333.750,300.469 333.750 C 300.727 333.750,300.938 333.608,300.938 333.434 C 300.938 333.260,301.992 332.053,303.281 330.751 C 304.570 329.449,305.625 328.278,305.625 328.149 C 305.625 328.020,306.328 327.193,307.187 326.310 C 308.047 325.428,308.750 324.617,308.750 324.507 C 308.750 324.398,309.102 324.032,309.531 323.694 C 309.961 323.356,310.312 322.809,310.312 322.477 C 310.313 322.146,310.523 321.875,310.781 321.875 C 311.039 321.875,311.250 321.724,311.250 321.540 C 311.250 321.108,312.045 320.313,312.478 320.313 C 312.662 320.313,312.813 319.970,312.813 319.552 C 312.812 319.104,313.037 318.720,313.359 318.615 C 313.660 318.518,314.241 317.946,314.650 317.344 C 315.059 316.742,315.516 316.250,315.665 316.250 C 315.815 316.250,315.938 316.103,315.937 315.924 C 315.937 315.744,316.289 315.219,316.719 314.755 C 317.148 314.292,317.500 313.799,317.500 313.660 C 317.500 313.521,317.852 313.082,318.281 312.684 C 318.711 312.285,319.063 311.834,319.063 311.680 C 319.063 311.526,319.414 311.021,319.844 310.557 C 320.273 310.094,320.625 309.568,320.625 309.389 C 320.625 309.209,320.766 309.063,320.938 309.063 C 321.111 309.063,321.496 308.500,321.793 307.813 C 322.091 307.125,322.513 306.563,322.730 306.563 C 322.947 306.563,323.125 306.352,323.125 306.094 C 323.125 305.836,323.266 305.625,323.438 305.625 C 323.609 305.625,323.750 305.431,323.750 305.195 C 323.750 304.958,323.961 304.589,324.219 304.375 C 324.477 304.161,324.688 303.786,324.688 303.541 C 324.688 303.296,325.039 302.769,325.469 302.371 C 325.898 301.973,326.250 301.497,326.250 301.315 C 326.250 301.132,326.430 300.796,326.651 300.569 C 327.793 299.393,329.375 296.773,329.375 296.058 C 329.375 295.820,329.586 295.625,329.844 295.625 C 330.102 295.625,330.313 295.414,330.313 295.156 C 330.313 294.898,330.453 294.688,330.625 294.688 C 330.797 294.688,330.938 294.413,330.938 294.079 C 330.938 293.744,331.289 293.090,331.719 292.627 C 332.148 292.163,332.500 291.608,332.500 291.394 C 332.500 291.180,332.711 290.923,332.969 290.824 C 333.227 290.726,333.438 290.322,333.438 289.928 C 333.438 289.535,333.754 288.858,334.141 288.425 C 335.059 287.397,335.938 285.814,335.938 285.186 C 335.938 284.912,336.078 284.688,336.250 284.688 C 336.422 284.688,336.563 284.477,336.563 284.219 C 336.563 283.961,336.693 283.750,336.852 283.750 C 337.226 283.750,338.125 281.951,338.125 281.202 C 338.125 280.885,338.262 280.625,338.430 280.625 C 338.597 280.625,339.019 280.001,339.366 279.238 C 339.714 278.475,340.139 277.763,340.312 277.657 C 340.484 277.550,340.625 277.188,340.625 276.852 C 340.625 276.212,341.135 275.163,341.797 274.443 C 342.012 274.209,342.188 273.817,342.188 273.571 C 342.188 273.326,342.322 273.125,342.486 273.125 C 342.650 273.125,342.877 272.633,342.989 272.031 C 343.102 271.430,343.320 270.938,343.472 270.938 C 343.625 270.938,343.750 270.586,343.750 270.156 C 343.750 269.727,343.864 269.375,344.002 269.375 C 344.313 269.375,345.313 267.164,345.313 266.476 C 345.313 266.200,345.449 265.890,345.617 265.786 C 345.784 265.683,346.146 265.077,346.421 264.440 C 347.402 262.169,347.886 261.086,348.160 260.551 C 348.312 260.253,348.438 259.813,348.438 259.574 C 348.438 259.335,348.648 258.964,348.906 258.750 C 349.164 258.536,349.375 258.035,349.375 257.636 C 349.375 257.238,349.516 256.825,349.688 256.719 C 349.859 256.613,350.000 256.108,350.000 255.597 C 350.000 255.059,350.198 254.592,350.469 254.488 C 350.727 254.389,350.938 254.110,350.938 253.869 C 350.937 253.627,351.059 253.185,351.208 252.886 C 351.647 252.006,352.247 250.221,352.415 249.297 C 352.501 248.824,352.689 248.438,352.834 248.438 C 352.978 248.438,353.189 247.945,353.302 247.344 C 353.415 246.742,353.632 246.250,353.785 246.250 C 353.938 246.250,354.063 245.708,354.063 245.047 C 354.063 244.363,354.400 243.208,354.844 242.374 C 355.273 241.566,355.625 240.717,355.625 240.488 C 355.625 240.259,355.835 239.669,356.092 239.176 C 356.349 238.684,356.560 237.762,356.561 237.128 C 356.562 236.493,356.703 235.887,356.875 235.781 C 357.047 235.675,357.188 235.192,357.188 234.707 C 357.188 234.223,357.398 233.651,357.656 233.438 C 357.914 233.224,358.125 232.722,358.125 232.324 C 358.125 231.925,358.266 231.512,358.438 231.406 C 358.609 231.300,358.750 230.465,358.750 229.551 C 358.750 228.455,358.910 227.757,359.219 227.500 C 359.477 227.286,359.688 226.644,359.688 226.074 C 359.688 225.504,359.828 224.950,360.000 224.844 C 360.172 224.738,360.313 224.184,360.313 223.614 C 360.313 223.043,360.523 222.401,360.781 222.188 C 361.107 221.917,361.250 221.198,361.250 219.824 C 361.250 218.738,361.383 217.767,361.544 217.667 C 361.706 217.567,361.934 216.854,362.049 216.083 C 362.165 215.311,362.384 214.603,362.536 214.509 C 362.688 214.415,362.813 213.655,362.813 212.820 C 362.813 211.939,362.966 211.251,363.178 211.180 C 363.406 211.104,363.595 210.008,363.681 208.264 C 363.756 206.726,363.943 205.335,364.097 205.172 C 364.250 205.009,364.375 204.216,364.375 203.411 C 364.375 202.605,364.585 201.544,364.842 201.051 C 365.099 200.559,365.310 199.356,365.311 198.378 C 365.312 197.400,365.453 196.512,365.625 196.406 C 365.811 196.291,365.938 194.312,365.938 191.522 C 365.938 187.768,366.031 186.737,366.406 186.362 C 366.776 185.992,366.875 185.012,366.875 181.715 C 366.875 179.267,367.004 177.457,367.188 177.344 C 367.778 176.979,367.602 58.112,367.008 56.923 C 366.738 56.381,366.386 55.938,366.227 55.938 C 366.068 55.938,365.938 55.666,365.938 55.335 C 365.938 54.752,364.594 53.438,363.998 53.438 C 363.837 53.438,363.494 53.227,363.237 52.969 C 362.557 52.289,352.285 52.280,351.388 52.959 C 350.485 53.642,328.890 53.642,327.987 52.959 C 327.537 52.619,326.472 52.500,323.865 52.500 C 321.858 52.500,320.266 52.366,320.156 52.188 C 320.050 52.016,318.862 51.875,317.517 51.875 C 315.955 51.875,314.748 51.706,314.176 51.408 C 313.546 51.079,312.293 50.941,309.940 50.939 C 308.052 50.938,306.515 50.802,306.406 50.625 C 306.300 50.453,305.465 50.313,304.551 50.313 C 303.455 50.313,302.757 50.153,302.500 49.844 C 302.253 49.546,301.562 49.375,300.605 49.375 C 299.777 49.375,299.012 49.234,298.906 49.063 C 298.800 48.891,297.611 48.750,296.265 48.750 C 294.377 48.750,293.776 48.643,293.637 48.281 C 293.525 47.989,293.048 47.813,292.372 47.813 C 291.775 47.813,291.200 47.672,291.094 47.500 C 290.988 47.328,290.293 47.188,289.551 47.188 C 288.733 47.188,288.048 47.003,287.813 46.719 C 287.558 46.413,286.862 46.250,285.805 46.250 C 284.916 46.250,284.054 46.130,283.891 45.983 C 283.533 45.660,280.535 44.687,279.899 44.687 C 279.650 44.688,279.044 44.477,278.551 44.221 C 278.059 43.964,277.129 43.753,276.484 43.752 C 275.840 43.751,275.313 43.609,275.313 43.438 C 275.313 43.266,274.908 43.125,274.413 43.125 C 273.919 43.125,273.339 42.914,273.125 42.656 C 272.911 42.398,272.340 42.188,271.855 42.188 C 271.371 42.188,270.887 42.047,270.781 41.875 C 270.675 41.703,270.049 41.563,269.390 41.563 C 268.613 41.563,268.129 41.398,268.012 41.094 C 267.913 40.836,267.484 40.625,267.060 40.625 C 266.635 40.625,266.200 40.484,266.094 40.313 C 265.988 40.141,265.522 39.996,265.060 39.990 C 264.597 39.985,263.946 39.774,263.612 39.521 C 263.279 39.269,262.681 39.063,262.284 39.063 C 261.887 39.063,261.563 38.922,261.563 38.750 C 261.563 38.578,261.136 38.438,260.615 38.438 C 260.061 38.438,259.593 38.243,259.488 37.969 C 259.378 37.683,258.905 37.500,258.274 37.500 C 257.705 37.500,257.193 37.395,257.135 37.266 C 257.078 37.137,256.469 36.769,255.781 36.448 C 255.094 36.127,254.158 35.670,253.702 35.432 C 253.246 35.195,252.586 35.000,252.236 35.000 C 251.886 35.000,251.512 34.859,251.406 34.688 C 251.300 34.516,250.940 34.375,250.607 34.375 C 250.273 34.375,250.000 34.261,250.000 34.123 C 250.000 33.740,247.714 32.813,246.770 32.813 C 246.312 32.813,245.936 32.637,245.935 32.422 C 245.933 32.057,244.585 31.250,243.978 31.250 C 243.828 31.250,243.494 31.039,243.237 30.781 C 242.979 30.523,242.426 30.313,242.009 30.313 C 241.592 30.313,241.250 30.172,241.250 30.000 C 241.250 29.828,240.976 29.688,240.641 29.688 C 240.305 29.687,239.919 29.512,239.781 29.297 C 239.420 28.732,238.236 28.125,237.494 28.125 C 237.143 28.125,236.774 27.914,236.676 27.656 C 236.577 27.398,236.367 27.188,236.210 27.188 C 236.053 27.187,235.368 26.836,234.688 26.406 C 234.007 25.977,233.159 25.625,232.804 25.625 C 232.448 25.625,231.832 25.273,231.434 24.844 C 231.035 24.414,230.497 24.063,230.237 24.063 C 229.977 24.063,229.589 23.852,229.375 23.594 C 229.161 23.336,228.722 23.125,228.399 23.125 C 228.077 23.125,227.813 22.984,227.813 22.813 C 227.813 22.641,227.617 22.500,227.377 22.500 C 227.138 22.500,226.861 22.289,226.762 22.031 C 226.663 21.773,226.296 21.563,225.947 21.563 C 225.598 21.563,225.313 21.422,225.313 21.250 C 225.313 21.078,225.046 20.938,224.721 20.938 C 224.396 20.938,224.048 20.727,223.949 20.469 C 223.851 20.211,223.554 20.000,223.291 20.000 C 223.028 20.000,222.813 19.876,222.813 19.724 C 222.813 19.572,222.566 19.365,222.266 19.264 C 221.604 19.042,220.725 18.476,219.863 17.718 C 219.511 17.409,218.624 16.856,217.892 16.491 C 217.161 16.126,216.563 15.711,216.563 15.570 C 216.563 15.428,216.352 15.313,216.094 15.313 C 215.836 15.313,215.625 15.181,215.625 15.021 C 215.625 14.861,215.328 14.635,214.966 14.520 C 214.603 14.405,213.962 14.009,213.541 13.640 C 212.791 12.981,210.925 11.776,210.000 11.352 C 209.742 11.234,209.246 10.811,208.896 10.412 C 208.547 10.014,208.020 9.688,207.724 9.688 C 207.429 9.688,207.188 9.547,207.188 9.375 C 207.188 9.203,206.977 9.063,206.719 9.063 C 206.461 9.063,206.249 8.887,206.247 8.672 C 206.246 8.457,205.799 7.930,205.255 7.500 C 204.710 7.070,204.099 6.553,203.897 6.351 C 202.757 5.214,197.271 4.420,196.719 5.313 M203.489 22.803 C 205.437 24.173,207.453 25.588,207.969 25.947 C 209.458 26.985,215.110 30.625,215.232 30.625 C 215.293 30.625,216.095 31.106,217.015 31.695 C 217.935 32.283,219.791 33.391,221.140 34.156 C 222.490 34.922,224.156 35.871,224.844 36.266 C 230.377 39.444,243.358 45.644,250.313 48.432 C 252.117 49.155,253.875 49.875,254.219 50.031 C 254.938 50.357,260.204 52.246,262.969 53.169 C 264.000 53.513,265.125 53.911,265.469 54.054 C 265.813 54.196,266.938 54.554,267.969 54.848 C 269.000 55.143,270.688 55.662,271.719 56.001 C 272.750 56.341,274.930 56.969,276.563 57.397 C 278.195 57.825,280.023 58.314,280.625 58.483 C 281.227 58.652,282.311 58.917,283.035 59.071 C 284.191 59.318,289.999 60.683,291.719 61.113 C 292.063 61.199,293.680 61.492,295.313 61.763 C 296.945 62.035,298.984 62.390,299.844 62.551 C 303.876 63.308,313.024 64.548,318.281 65.049 C 326.796 65.860,338.971 66.167,350.938 65.870 L 354.531 65.781 354.531 122.344 L 354.531 178.906 353.667 185.469 C 353.192 189.078,352.592 193.648,352.335 195.625 C 351.619 201.121,350.002 209.948,348.698 215.469 C 348.536 216.156,348.286 217.281,348.143 217.969 C 347.763 219.795,346.120 225.973,345.151 229.219 C 344.689 230.766,344.199 232.453,344.063 232.969 C 343.094 236.620,338.550 248.996,335.859 255.313 C 332.112 264.106,324.285 278.965,318.696 287.895 C 316.042 292.136,311.396 298.899,308.543 302.675 C 307.024 304.685,305.570 306.633,305.313 307.005 C 299.928 314.760,283.982 331.706,274.392 339.865 C 273.800 340.369,272.745 341.281,272.048 341.893 C 271.351 342.504,269.656 343.910,268.281 345.018 C 266.906 346.125,265.711 347.113,265.625 347.213 C 265.449 347.419,255.896 354.568,254.688 355.399 C 249.238 359.146,241.332 364.220,238.146 366.016 C 229.588 370.839,223.801 373.874,219.219 375.941 C 218.359 376.328,216.761 377.054,215.667 377.554 C 208.955 380.622,200.092 384.059,198.888 384.061 C 197.963 384.062,188.805 380.547,184.048 378.364 C 182.767 377.776,180.945 376.955,180.000 376.540 C 172.296 373.155,149.949 360.563,149.427 359.312 C 149.370 359.175,149.200 359.063,149.050 359.062 C 148.900 359.062,147.963 358.499,146.967 357.809 C 145.971 357.120,144.891 356.382,144.567 356.169 C 144.243 355.956,143.118 355.148,142.067 354.375 C 141.016 353.602,139.856 352.758,139.489 352.500 C 138.923 352.102,135.842 349.782,134.844 349.002 C 133.274 347.775,127.674 343.197,126.563 342.233 C 125.789 341.562,124.595 340.539,123.909 339.960 C 112.930 330.689,98.330 314.578,88.200 300.556 C 87.297 299.305,86.446 298.141,86.310 297.969 C 86.175 297.797,84.821 295.758,83.302 293.438 C 81.783 291.117,80.137 288.617,79.645 287.881 C 79.153 287.146,78.750 286.482,78.750 286.405 C 78.750 286.329,77.836 284.788,76.719 282.980 C 75.602 281.173,74.688 279.629,74.688 279.549 C 74.688 279.469,73.998 278.206,73.156 276.742 C 71.854 274.480,70.281 271.453,65.755 262.500 C 62.372 255.810,56.308 239.945,53.751 231.094 C 53.407 229.903,53.174 229.088,52.524 226.797 C 51.998 224.940,49.337 214.259,49.004 212.664 C 48.824 211.800,48.548 210.391,48.391 209.531 C 48.234 208.672,47.980 207.336,47.827 206.563 C 44.600 190.249,44.375 184.482,44.375 118.077 L 44.375 65.860 48.203 66.098 C 64.589 67.114,88.393 65.269,105.313 61.670 C 106.602 61.396,108.289 61.059,109.063 60.921 C 109.836 60.784,111.383 60.438,112.500 60.153 C 113.617 59.868,115.094 59.521,115.781 59.382 C 119.563 58.619,136.096 53.646,138.594 52.519 C 138.938 52.364,140.273 51.861,141.563 51.400 C 151.974 47.679,168.926 39.727,177.813 34.395 C 183.517 30.972,185.783 29.543,190.776 26.215 C 194.044 24.036,197.281 21.821,197.969 21.292 C 199.632 20.012,199.448 19.962,203.489 22.803 " stroke="none" fill="#070505" fill-rule="evenodd"></path><path id="path1" d="M199.879 21.475 C 199.774 21.580,199.688 58.206,199.688 102.865 L 199.688 184.063 276.388 184.063 C 337.405 184.062,353.140 183.983,353.341 183.672 C 353.628 183.229,353.876 67.744,353.592 66.606 C 353.413 65.888,353.349 65.875,351.157 66.101 C 346.082 66.625,316.912 66.105,314.844 65.455 C 314.500 65.346,313.164 65.133,311.875 64.981 C 303.158 63.949,295.341 62.748,294.677 62.337 C 294.499 62.227,293.549 62.008,292.567 61.851 C 290.519 61.522,286.985 60.803,285.156 60.343 C 284.469 60.170,283.344 59.899,282.656 59.740 C 278.212 58.714,274.976 57.795,274.547 57.436 C 274.384 57.299,273.974 57.188,273.637 57.188 C 272.938 57.188,269.803 56.322,268.989 55.904 C 268.690 55.750,268.231 55.625,267.969 55.625 C 267.706 55.625,267.247 55.495,266.949 55.335 C 266.650 55.176,265.633 54.819,264.688 54.543 C 263.742 54.267,262.406 53.818,261.719 53.546 C 261.031 53.273,260.188 52.938,259.844 52.801 C 259.500 52.664,258.938 52.482,258.594 52.396 C 258.250 52.310,256.984 51.859,255.781 51.394 C 254.578 50.930,253.048 50.350,252.380 50.106 C 251.713 49.862,250.597 49.386,249.900 49.050 C 249.203 48.713,248.522 48.438,248.387 48.438 C 248.252 48.438,247.330 48.067,246.337 47.614 C 245.344 47.162,243.898 46.512,243.125 46.171 C 240.622 45.067,235.715 42.744,233.594 41.659 C 233.250 41.483,232.547 41.124,232.031 40.860 C 227.110 38.343,223.177 36.219,221.094 34.951 C 220.578 34.637,219.945 34.284,219.688 34.165 C 217.903 33.346,205.590 25.347,201.676 22.465 C 200.793 21.815,199.985 21.369,199.879 21.475 M45.782 186.560 C 45.674 186.902,45.671 187.322,45.777 187.494 C 45.883 187.665,46.175 189.811,46.424 192.262 C 46.920 197.129,47.203 199.173,47.777 202.031 C 48.359 204.927,49.405 210.658,49.574 211.875 C 49.658 212.477,49.843 213.250,49.986 213.594 C 50.129 213.938,50.481 215.414,50.768 216.875 C 51.054 218.336,51.475 220.164,51.702 220.938 C 51.929 221.711,52.260 222.906,52.439 223.594 C 52.618 224.281,52.986 225.598,53.257 226.520 C 53.528 227.442,53.750 228.393,53.750 228.634 C 53.750 228.874,53.877 229.315,54.031 229.614 C 54.186 229.912,54.560 231.000,54.862 232.031 C 55.700 234.889,56.871 238.520,57.179 239.219 C 57.331 239.563,57.689 240.617,57.974 241.563 C 58.506 243.325,59.176 245.051,59.703 246.011 C 59.866 246.310,60.000 246.769,60.000 247.031 C 60.000 247.294,60.136 247.753,60.302 248.051 C 60.468 248.350,61.045 249.719,61.584 251.094 C 62.123 252.469,62.878 254.297,63.262 255.156 C 63.646 256.016,64.295 257.492,64.703 258.438 C 65.685 260.710,72.414 273.991,73.862 276.514 C 74.488 277.605,75.000 278.551,75.000 278.617 C 75.000 278.792,78.690 284.934,79.732 286.494 C 80.223 287.229,80.625 287.915,80.625 288.018 C 80.625 288.121,81.328 289.237,82.188 290.498 C 83.047 291.759,83.750 292.856,83.750 292.935 C 83.750 293.483,95.235 308.903,98.438 312.655 C 99.039 313.360,100.094 314.615,100.781 315.444 C 102.509 317.528,102.638 317.676,105.629 320.978 C 108.679 324.345,117.534 333.267,119.844 335.298 C 120.703 336.055,122.326 337.527,123.450 338.571 C 124.575 339.615,126.115 340.961,126.873 341.563 C 128.313 342.706,130.357 344.412,130.625 344.695 C 130.711 344.786,131.414 345.348,132.186 345.946 C 132.959 346.543,133.803 347.198,134.061 347.403 C 135.630 348.643,137.395 350.047,137.710 350.305 C 138.009 350.549,142.307 353.609,148.281 357.831 C 148.797 358.195,149.852 358.901,150.625 359.401 C 151.398 359.900,152.242 360.445,152.500 360.613 C 153.990 361.582,161.045 365.840,162.500 366.648 C 163.445 367.173,164.711 367.880,165.313 368.220 C 171.080 371.475,180.907 376.280,186.875 378.762 C 187.820 379.155,188.727 379.595,188.891 379.739 C 189.054 379.882,189.366 380.000,189.585 380.000 C 189.804 380.000,190.725 380.333,191.632 380.739 C 192.539 381.146,193.914 381.724,194.688 382.023 C 195.461 382.323,196.417 382.694,196.812 382.847 C 197.206 383.000,197.730 383.125,197.975 383.125 C 198.360 383.125,198.443 370.521,198.578 291.016 C 198.665 240.355,198.817 196.445,198.916 193.438 C 199.016 190.430,199.013 187.512,198.910 186.953 L 198.722 185.938 122.351 185.938 C 46.368 185.938,45.979 185.941,45.782 186.560 " stroke="none" fill="#fbfbfb" fill-rule="evenodd"></path><path id="path2" d="M197.971 21.246 C 197.705 21.676,185.538 29.757,181.563 32.144 C 179.758 33.227,178.070 34.240,177.813 34.395 C 168.926 39.727,151.974 47.679,141.563 51.400 C 140.273 51.861,138.938 52.364,138.594 52.519 C 136.096 53.646,119.563 58.619,115.781 59.382 C 115.094 59.521,113.617 59.868,112.500 60.153 C 111.383 60.438,109.836 60.784,109.063 60.921 C 108.289 61.059,106.602 61.396,105.313 61.670 C 88.385 65.270,64.602 67.113,48.184 66.097 L 44.336 65.859 44.501 123.476 C 44.591 155.166,44.752 182.117,44.859 183.367 L 45.052 185.640 122.103 185.616 C 166.795 185.602,199.271 185.709,199.433 185.870 C 199.590 186.027,199.635 189.207,199.536 193.153 C 199.123 209.701,199.042 384.063,199.448 384.061 C 200.143 384.058,210.724 379.813,215.667 377.554 C 216.761 377.054,218.359 376.328,219.219 375.941 C 223.801 373.874,229.588 370.839,238.146 366.016 C 241.332 364.220,249.238 359.146,254.688 355.399 C 255.896 354.568,265.449 347.419,265.625 347.213 C 265.711 347.113,266.906 346.125,268.281 345.018 C 269.656 343.910,271.351 342.504,272.048 341.893 C 272.745 341.281,273.800 340.369,274.392 339.865 C 283.982 331.706,299.928 314.760,305.313 307.005 C 305.570 306.633,307.024 304.685,308.543 302.675 C 321.340 285.738,333.368 263.358,340.776 242.697 C 342.450 238.030,343.709 234.302,344.063 232.969 C 344.199 232.453,344.689 230.766,345.151 229.219 C 346.120 225.973,347.763 219.795,348.143 217.969 C 348.286 217.281,348.537 216.156,348.700 215.469 C 349.347 212.747,350.373 207.870,350.674 206.094 C 350.848 205.063,351.104 203.586,351.243 202.813 C 351.665 200.458,352.537 194.156,353.092 189.453 L 353.617 185.000 276.663 185.000 C 200.901 185.000,199.704 184.991,199.386 184.396 C 199.165 183.983,199.063 157.896,199.063 102.364 C 199.063 18.076,199.081 19.450,197.971 21.246 " stroke="none" fill="#d3241c" fill-rule="evenodd"></path><path id="path3" d="M199.252 21.432 C 198.754 22.730,199.052 184.007,199.554 184.509 C 200.055 185.010,350.882 185.299,352.734 184.803 C 355.913 183.951,351.885 183.908,276.563 183.986 L 199.688 184.065 199.688 102.866 C 199.688 58.206,199.774 21.580,199.879 21.475 C 199.985 21.369,200.793 21.815,201.676 22.465 C 206.246 25.830,219.302 34.239,219.559 33.983 C 219.626 33.916,217.156 32.290,214.070 30.369 C 210.984 28.448,206.563 25.540,204.244 23.907 C 199.786 20.768,199.552 20.651,199.252 21.432 M220.273 34.465 C 220.509 34.759,220.828 35.000,220.982 35.000 C 221.136 35.000,221.835 35.362,222.536 35.804 C 223.236 36.246,223.878 36.539,223.963 36.454 C 224.047 36.370,223.788 36.129,223.386 35.920 C 222.985 35.710,222.023 35.177,221.250 34.735 C 220.273 34.176,219.975 34.094,220.273 34.465 M224.375 36.668 C 224.375 36.879,226.620 38.171,226.755 38.037 C 226.817 37.975,226.307 37.608,225.622 37.223 C 224.936 36.838,224.375 36.588,224.375 36.668 M227.188 38.275 C 227.188 38.492,229.725 39.754,229.870 39.609 C 229.937 39.542,229.418 39.180,228.717 38.806 C 227.385 38.095,227.188 38.027,227.188 38.275 M230.313 39.817 C 230.313 40.062,232.588 41.273,232.871 41.178 C 233.032 41.125,232.522 40.769,231.738 40.388 C 230.954 40.007,230.313 39.750,230.313 39.817 M233.594 41.514 C 234.009 41.941,237.838 43.828,237.987 43.680 C 238.051 43.616,237.018 43.030,235.692 42.379 C 234.366 41.727,233.422 41.338,233.594 41.514 M239.688 44.542 C 239.688 44.723,242.417 45.948,242.760 45.921 C 242.952 45.906,240.007 44.375,239.785 44.375 C 239.732 44.375,239.688 44.450,239.688 44.542 M243.612 46.396 C 243.946 46.649,244.430 46.855,244.688 46.854 C 244.959 46.853,244.828 46.665,244.375 46.406 C 243.348 45.819,242.840 45.813,243.612 46.396 M247.188 47.969 C 247.617 48.214,248.180 48.415,248.438 48.414 C 248.695 48.414,248.433 48.208,247.855 47.957 C 246.524 47.379,246.167 47.385,247.188 47.969 M250.938 49.507 C 251.367 49.766,251.930 49.979,252.188 49.979 C 252.815 49.982,252.072 49.544,250.938 49.244 L 250.156 49.036 250.938 49.507 M254.219 50.788 C 255.078 51.193,255.992 51.527,256.250 51.530 C 256.508 51.533,255.886 51.190,254.869 50.768 C 252.542 49.802,252.151 49.814,254.219 50.788 M257.500 52.031 C 257.930 52.277,258.563 52.477,258.906 52.477 C 259.338 52.476,259.206 52.334,258.480 52.019 C 257.139 51.437,256.474 51.445,257.500 52.031 M261.587 53.399 C 262.320 53.877,265.035 54.757,265.217 54.575 C 265.303 54.488,264.692 54.211,263.859 53.958 C 263.026 53.705,262.063 53.404,261.719 53.288 C 261.211 53.117,261.186 53.138,261.587 53.399 M265.938 54.891 C 266.195 54.976,266.709 55.192,267.079 55.372 C 267.448 55.551,267.941 55.622,268.172 55.530 C 268.415 55.433,268.303 55.351,267.909 55.337 C 267.532 55.324,267.137 55.172,267.031 55.000 C 266.925 54.828,266.530 54.699,266.153 54.712 C 265.721 54.728,265.641 54.794,265.938 54.891 M268.906 55.938 C 269.012 56.109,269.407 56.240,269.784 56.228 C 270.444 56.207,270.446 56.196,269.844 55.938 C 268.984 55.568,268.678 55.568,268.906 55.938 M271.563 56.719 C 272.164 56.950,272.938 57.141,273.281 57.143 C 273.625 57.144,273.273 56.946,272.500 56.703 C 270.734 56.146,270.104 56.157,271.563 56.719 M276.833 58.266 C 277.411 58.532,278.255 58.736,278.708 58.718 C 279.438 58.690,279.408 58.652,278.438 58.388 C 276.243 57.790,275.709 57.750,276.833 58.266 M281.094 59.276 C 281.953 59.533,283.219 59.881,283.906 60.049 C 284.594 60.217,285.578 60.475,286.094 60.621 C 286.609 60.767,287.664 60.965,288.438 61.061 C 289.297 61.167,288.871 60.991,287.344 60.609 C 283.829 59.729,282.488 59.376,281.384 59.041 C 280.856 58.881,280.223 58.763,279.978 58.780 C 279.732 58.796,280.234 59.020,281.094 59.276 M290.781 61.563 C 291.125 61.710,291.688 61.831,292.031 61.831 L 292.656 61.831 292.031 61.563 C 291.688 61.415,291.125 61.294,290.781 61.294 L 290.156 61.294 290.781 61.563 M296.875 62.846 C 297.648 63.022,298.984 63.217,299.844 63.280 L 301.406 63.395 300.000 63.115 C 299.227 62.961,297.891 62.766,297.031 62.681 L 295.469 62.526 296.875 62.846 M302.969 63.766 C 303.828 63.925,305.445 64.111,306.563 64.180 L 308.594 64.305 306.875 64.047 C 305.930 63.905,304.313 63.718,303.281 63.632 L 301.406 63.476 302.969 63.766 M309.396 64.707 C 309.810 64.969,313.391 65.142,313.099 64.886 C 313.027 64.823,312.064 64.694,310.959 64.598 C 309.703 64.489,309.117 64.530,309.396 64.707 M314.219 65.305 C 314.563 65.431,316.320 65.610,318.125 65.703 C 319.993 65.799,321.002 65.765,320.469 65.623 C 319.262 65.301,313.391 65.003,314.219 65.305 M330.156 66.250 C 330.500 66.398,331.063 66.519,331.406 66.519 L 332.031 66.519 331.406 66.250 C 331.063 66.102,330.500 65.981,330.156 65.981 L 329.531 65.981 330.156 66.250 M347.969 66.250 L 347.344 66.519 347.969 66.519 C 348.313 66.519,348.875 66.398,349.219 66.250 L 349.844 65.981 349.219 65.981 C 348.875 65.981,348.313 66.102,347.969 66.250 M353.594 124.297 C 353.594 156.395,353.707 181.742,353.846 180.625 C 354.137 178.289,354.514 67.782,354.235 66.672 C 354.134 66.268,353.948 65.938,353.822 65.938 C 353.697 65.938,353.594 92.199,353.594 124.297 M119.067 185.620 C 45.779 185.781,45.477 185.784,45.382 186.406 C 45.293 186.992,45.315 186.997,45.725 186.484 C 46.140 185.966,50.170 185.938,122.442 185.938 L 198.722 185.938 198.910 186.953 C 199.013 187.512,199.016 190.430,198.916 193.438 C 198.817 196.445,198.665 240.371,198.578 291.051 L 198.421 383.195 197.726 383.029 C 197.344 382.938,196.680 382.774,196.250 382.664 C 195.768 382.542,195.884 382.657,196.551 382.965 C 197.146 383.239,197.920 383.422,198.270 383.372 L 198.906 383.281 199.128 291.719 C 199.250 241.359,199.433 196.955,199.535 193.043 C 199.684 187.346,199.640 185.905,199.314 185.803 C 198.317 185.490,188.395 185.468,119.067 185.620 M45.684 188.594 C 45.682 189.281,45.869 191.039,46.100 192.500 L 46.520 195.156 46.344 192.259 C 46.247 190.665,46.060 188.908,45.929 188.353 L 45.689 187.344 45.684 188.594 M46.606 196.719 C 46.606 197.063,46.727 197.625,46.875 197.969 L 47.144 198.594 47.144 197.969 C 47.144 197.625,47.023 197.063,46.875 196.719 L 46.606 196.094 46.606 196.719 M47.375 201.094 C 47.796 203.930,48.044 204.919,48.080 203.906 C 48.098 203.391,47.905 202.266,47.651 201.406 C 47.233 199.990,47.207 199.961,47.375 201.094 M48.184 205.938 C 48.176 206.539,48.290 207.313,48.438 207.656 C 48.795 208.487,48.795 207.185,48.438 205.781 L 48.199 204.844 48.184 205.938 M48.915 209.531 C 48.994 210.219,49.193 211.344,49.357 212.031 L 49.656 213.281 49.536 212.031 C 49.471 211.344,49.271 210.219,49.094 209.531 L 48.771 208.281 48.915 209.531 M49.789 213.945 C 49.881 214.268,50.200 215.656,50.497 217.031 C 50.795 218.406,51.093 219.369,51.160 219.170 C 51.227 218.972,51.064 217.967,50.797 216.938 C 50.531 215.908,50.313 214.778,50.313 214.426 C 50.313 214.075,50.157 213.691,49.967 213.573 C 49.743 213.435,49.680 213.566,49.789 213.945 M51.422 220.938 C 52.114 223.964,52.669 225.694,52.754 225.094 C 52.808 224.716,52.702 224.128,52.520 223.787 C 52.337 223.445,52.181 222.911,52.173 222.599 C 52.166 222.287,51.953 221.609,51.701 221.094 C 51.309 220.291,51.269 220.268,51.422 220.938 M52.827 226.094 C 52.824 226.266,53.033 227.039,53.290 227.813 L 53.758 229.219 53.569 227.969 C 53.393 226.802,52.837 225.399,52.827 226.094 M53.772 229.591 C 53.842 230.402,54.331 231.090,54.353 230.409 C 54.365 230.032,54.234 229.637,54.063 229.531 C 53.891 229.425,53.760 229.452,53.772 229.591 M54.424 231.563 C 54.423 231.820,54.612 232.523,54.844 233.125 C 55.117 233.835,55.268 233.999,55.275 233.594 C 55.280 233.250,55.091 232.547,54.855 232.031 C 54.619 231.516,54.425 231.305,54.424 231.563 M55.322 234.688 C 55.322 234.945,55.458 235.367,55.625 235.625 C 55.894 236.042,55.928 236.042,55.928 235.625 C 55.928 235.367,55.792 234.945,55.625 234.688 C 55.356 234.271,55.322 234.271,55.322 234.688 M55.950 236.448 C 55.943 236.644,56.143 237.276,56.394 237.855 C 56.645 238.433,56.856 238.747,56.863 238.552 C 56.869 238.356,56.670 237.724,56.418 237.145 C 56.167 236.567,55.956 236.253,55.950 236.448 M56.938 239.375 C 57.024 239.633,57.346 240.656,57.654 241.648 C 57.963 242.640,58.276 243.391,58.351 243.316 C 58.541 243.126,57.450 239.600,57.083 239.219 C 56.887 239.015,56.837 239.069,56.938 239.375 M58.438 243.835 C 58.438 244.392,59.976 247.508,59.987 246.972 C 59.994 246.595,59.870 246.207,59.712 246.109 C 59.553 246.011,59.331 245.512,59.219 245.000 C 59.056 244.257,58.438 243.335,58.438 243.835 M60.072 248.125 C 60.673 249.764,61.344 251.260,61.438 251.166 C 61.592 251.012,60.504 248.207,60.173 247.905 C 60.023 247.768,59.978 247.867,60.072 248.125 M61.574 251.605 C 61.567 251.714,61.768 252.276,62.019 252.855 C 62.270 253.433,62.476 253.695,62.477 253.438 C 62.478 252.987,61.596 251.198,61.574 251.605 M63.144 255.499 C 63.134 255.687,63.325 256.250,63.569 256.749 C 63.814 257.248,64.458 258.641,65.000 259.844 C 66.439 263.034,67.290 264.714,67.548 264.874 C 67.746 264.996,66.459 262.117,63.903 256.719 C 63.496 255.859,63.154 255.310,63.144 255.499 M67.813 265.429 C 67.813 265.848,69.107 268.185,69.256 268.036 C 69.338 267.953,69.102 267.342,68.732 266.677 C 67.984 265.336,67.813 265.103,67.813 265.429 M69.375 268.541 C 69.375 268.931,71.625 273.166,71.760 273.031 C 71.835 272.957,71.395 271.936,70.783 270.763 C 69.662 268.613,69.375 268.160,69.375 268.541 M73.137 275.859 C 74.367 278.147,75.000 279.108,75.000 278.690 C 75.000 278.388,72.165 273.438,71.992 273.438 C 71.905 273.438,72.420 274.527,73.137 275.859 M75.340 279.766 C 76.714 282.433,80.345 288.197,80.533 288.009 C 80.603 287.939,80.249 287.268,79.746 286.519 C 79.242 285.769,78.020 283.785,77.029 282.109 C 75.390 279.338,74.442 278.023,75.340 279.766 M80.780 288.750 C 81.566 290.194,83.551 293.115,83.667 292.999 C 83.742 292.924,83.146 291.902,82.343 290.728 C 80.899 288.618,80.285 287.841,80.780 288.750 M86.148 296.953 C 87.466 298.887,88.886 300.891,89.304 301.406 C 89.722 301.922,91.118 303.750,92.404 305.469 C 100.422 316.177,123.882 341.222,124.921 340.183 C 125.036 340.069,122.518 337.645,119.844 335.296 C 115.839 331.778,105.093 320.639,101.309 316.083 C 101.019 315.733,100.096 314.636,99.259 313.645 C 95.989 309.774,92.010 304.598,88.108 299.141 C 83.549 292.766,82.485 291.578,86.148 296.953 M125.781 340.904 C 126.744 342.056,137.581 350.651,137.787 350.426 C 137.887 350.316,137.792 350.164,137.575 350.087 C 137.359 350.009,136.586 349.457,135.857 348.860 C 134.316 347.598,134.066 347.399,132.186 345.942 C 131.414 345.343,130.602 344.681,130.383 344.472 C 130.164 344.263,129.320 343.558,128.508 342.905 C 127.696 342.253,126.961 341.648,126.875 341.563 C 126.789 341.477,126.367 341.125,125.938 340.781 L 125.156 340.156 125.781 340.904 M138.432 351.084 C 138.687 351.393,139.337 351.943,139.877 352.307 C 142.074 353.789,144.853 355.745,145.000 355.914 C 145.086 356.013,146.633 357.069,148.438 358.260 C 150.242 359.451,151.930 360.576,152.188 360.760 C 152.594 361.049,152.599 361.021,152.229 360.549 C 151.994 360.249,151.080 359.577,150.198 359.056 C 149.316 358.534,148.242 357.847,147.813 357.528 C 144.292 354.915,138.060 350.634,138.432 351.084 M153.771 361.687 C 155.119 362.603,160.216 365.702,161.267 366.245 C 162.957 367.117,161.180 365.893,157.261 363.485 C 153.324 361.066,151.392 360.071,153.771 361.687 M162.188 366.699 C 162.188 366.862,166.724 369.403,170.000 371.075 C 171.289 371.732,172.203 372.126,172.031 371.949 C 171.859 371.772,170.523 370.999,169.063 370.231 C 165.294 368.252,163.328 367.153,162.984 366.836 C 162.673 366.549,162.188 366.465,162.188 366.699 M172.500 372.336 C 172.500 372.560,175.088 373.766,175.241 373.613 C 175.313 373.541,174.770 373.190,174.034 372.834 C 172.596 372.140,172.500 372.109,172.500 372.336 M175.651 373.868 C 175.971 374.157,178.438 375.309,178.438 375.169 C 178.438 374.991,176.079 373.750,175.742 373.750 C 175.620 373.750,175.579 373.803,175.651 373.868 M180.132 376.108 C 180.978 376.528,181.730 376.811,181.803 376.739 C 181.984 376.557,179.498 375.308,178.997 375.329 C 178.775 375.338,179.286 375.689,180.132 376.108 M182.969 377.361 C 186.296 378.942,188.844 380.010,188.976 379.878 C 189.061 379.793,188.658 379.525,188.081 379.283 C 187.503 379.040,186.258 378.516,185.313 378.119 C 184.367 377.723,183.460 377.280,183.297 377.136 C 183.134 376.993,182.782 376.884,182.516 376.895 C 182.249 376.906,182.453 377.116,182.969 377.361 M190.270 380.481 C 190.849 380.732,191.411 380.933,191.520 380.926 C 191.927 380.904,190.138 380.022,189.688 380.023 C 189.430 380.024,189.692 380.230,190.270 380.481 M194.020 382.043 C 194.599 382.295,195.161 382.495,195.270 382.489 C 195.677 382.466,193.888 381.585,193.438 381.586 C 193.180 381.586,193.442 381.792,194.020 382.043 " stroke="none" fill="#d09e9b" fill-rule="evenodd"></path><path id="path4" d="M198.945 20.562 C 198.861 20.699,198.920 21.015,199.078 21.265 C 199.275 21.576,199.367 21.596,199.370 21.328 C 199.379 20.596,200.027 20.937,204.154 23.844 C 214.794 31.338,232.626 41.459,242.500 45.609 C 243.445 46.007,245.101 46.735,246.180 47.228 C 247.258 47.722,248.215 48.125,248.306 48.125 C 248.397 48.125,249.062 48.386,249.783 48.706 C 252.136 49.749,261.662 53.281,264.688 54.232 C 265.633 54.530,266.688 54.893,267.031 55.039 C 268.011 55.457,276.023 57.759,279.531 58.631 C 285.529 60.121,285.715 60.165,289.219 60.948 C 292.902 61.771,294.594 62.116,296.719 62.481 C 297.578 62.628,298.633 62.834,299.063 62.939 C 299.492 63.043,301.039 63.279,302.500 63.463 C 305.341 63.821,307.723 64.139,311.719 64.695 C 321.526 66.061,341.248 66.767,350.743 66.093 C 353.179 65.921,353.887 65.963,354.098 66.297 C 354.453 66.857,354.429 165.765,354.072 174.375 C 353.719 182.850,353.512 184.616,352.849 184.793 C 352.499 184.886,352.549 184.939,353.012 184.964 C 354.489 185.044,354.531 183.294,354.531 122.188 L 354.531 65.781 350.938 65.870 C 338.971 66.167,326.796 65.860,318.281 65.049 C 313.024 64.548,303.876 63.308,299.844 62.551 C 298.984 62.390,296.945 62.035,295.313 61.763 C 293.680 61.492,292.063 61.199,291.719 61.113 C 289.999 60.683,284.191 59.318,283.035 59.071 C 282.311 58.917,281.227 58.652,280.625 58.483 C 280.023 58.314,278.195 57.825,276.563 57.397 C 274.930 56.969,272.750 56.341,271.719 56.001 C 270.688 55.662,269.000 55.143,267.969 54.848 C 266.938 54.554,265.813 54.196,265.469 54.054 C 265.125 53.911,264.000 53.513,262.969 53.169 C 260.204 52.246,254.938 50.357,254.219 50.031 C 253.875 49.875,252.117 49.155,250.313 48.432 C 244.205 45.984,240.534 44.294,232.656 40.306 C 229.047 38.479,225.531 36.661,224.844 36.266 C 224.156 35.871,222.490 34.922,221.140 34.156 C 219.791 33.391,217.935 32.283,217.015 31.695 C 216.095 31.106,215.293 30.625,215.232 30.625 C 215.110 30.625,209.458 26.985,207.969 25.947 C 207.453 25.588,205.437 24.173,203.489 22.803 C 200.091 20.414,199.283 20.015,198.945 20.562 M45.011 186.172 C 45.064 188.742,46.790 201.249,47.837 206.641 C 47.995 207.457,48.249 208.793,48.401 209.609 C 48.944 212.534,49.353 214.317,50.784 220.007 C 52.159 225.475,52.478 226.690,53.119 228.906 C 53.268 229.422,53.552 230.406,53.751 231.094 C 56.308 239.945,62.372 255.810,65.755 262.500 C 70.281 271.453,71.854 274.480,73.156 276.742 C 73.998 278.206,74.688 279.469,74.688 279.549 C 74.688 279.629,75.602 281.173,76.719 282.980 C 77.836 284.788,78.750 286.329,78.750 286.405 C 78.750 286.482,79.153 287.146,79.645 287.881 C 80.137 288.617,81.783 291.117,83.302 293.438 C 84.821 295.758,86.175 297.797,86.310 297.969 C 86.446 298.141,87.297 299.305,88.200 300.556 C 98.330 314.578,112.930 330.689,123.909 339.960 C 124.595 340.539,125.789 341.562,126.563 342.233 C 127.674 343.197,133.274 347.775,134.844 349.002 C 135.842 349.782,138.923 352.102,139.489 352.500 C 139.856 352.758,141.016 353.602,142.067 354.375 C 143.118 355.148,144.243 355.956,144.567 356.169 C 144.891 356.382,145.971 357.120,146.967 357.809 C 147.963 358.499,148.900 359.063,149.050 359.063 C 149.200 359.063,149.370 359.175,149.427 359.312 C 149.949 360.563,172.296 373.155,180.000 376.540 C 180.945 376.955,182.767 377.776,184.048 378.364 C 192.007 382.016,199.063 384.494,199.063 383.637 C 199.063 383.365,198.809 383.259,198.359 383.343 C 197.709 383.465,189.633 380.431,185.695 378.585 C 184.788 378.160,183.989 377.813,183.921 377.813 C 183.462 377.813,171.965 372.186,167.344 369.699 C 161.108 366.344,145.923 356.976,145.000 355.914 C 144.914 355.815,143.947 355.112,142.850 354.352 C 125.135 342.062,105.708 323.237,92.404 305.469 C 91.118 303.750,89.717 301.922,89.293 301.406 C 87.072 298.708,78.496 285.367,74.929 279.063 C 74.492 278.289,73.815 277.094,73.425 276.406 C 73.035 275.719,71.489 272.766,69.990 269.844 C 68.490 266.922,66.974 263.969,66.621 263.281 C 66.268 262.594,65.536 261.047,64.994 259.844 C 64.049 257.748,63.780 257.135,62.730 254.688 C 58.602 245.067,53.107 228.604,51.256 220.313 C 51.122 219.711,50.697 217.883,50.313 216.250 C 48.515 208.623,48.034 205.939,46.300 193.865 C 45.951 191.436,45.621 188.589,45.567 187.538 C 45.482 185.891,44.980 184.658,45.011 186.172 " stroke="none" fill="#a17774" fill-rule="evenodd"></path></g></svg>